Patient4_TMGait_0pt4_02_left_33_EMG.mot
version=1
nRows=20
nColumns=33
inDegrees=no
endheader
time	1LAddLong	2LGlutMax	3LGlutMed	4LIliopsoas	5LSemiMemb	6LBicFemLong	7LRecFem	8LVastMed	9LVastLat	10LGasMed	11LTibAnt	12lTibPost	13LPeroneusLong	14LSol	15LExtDigLong	16LFlexDigLong	17RAddLong	18RGlutMax	19RGlutMed	20RIliopsoas	21RSemiMemb	22RBicFemLong	23RRecFem	24RVastMed	25RVastLat	26RGasMed	27RTibAnt	28RTibPost	29RPeroneusLong	30RSol	31RExtDigLong	32RFlexDigLong
44.18	0.007477	0.28183	-0.036621	0.013733	-0.016937	-0.012207	0.10269	0.011139	-0.20783	0.003052	0.007019	0.006561	0	0.029602	0.006409	-0.000763	0.012054	-0.19073	0.48904	0.047455	-0.059052	0.032043	-0.038605	0.10895	-0.022278	-0.018921	0.069275	0.000305	-0.012665	-0.44479	0.004425	-0.009766
44.181	0.006104	0.28534	-0.028839	0.024872	0.029297	-0.004578	0.098877	0.007172	-0.21545	0.004883	0.001831	0.000305	0.033417	-0.055542	0.000305	0.000763	0.016479	-0.20767	0.19531	-0.10544	0.11246	-0.03952	-0.047455	0.084991	-0.023499	-0.026245	0.041656	-0.002594	0.066223	-0.057678	-0.000305	0.006561
44.182	0	0.29098	-0.003357	0.010529	0.020752	-0.011292	0.096436	0.010986	-0.21149	0.02655	0.002289	0.00473	0.041046	-0.019226	-0.002594	-0.005493	0.039673	-0.19028	0.22812	-0.17883	0.11169	-0.069122	0.078888	0.041351	-0.025635	-0.054321	0.13657	0.000763	-0.060425	0.47516	-0.001831	-0.006409
44.183	-0.00351	0.29541	0.004578	0.008087	-0.018616	0.010376	0.079651	0.009613	-0.19196	0.046234	-0.006409	0.011749	0.033875	-0.010223	-0.007324	0.007172	0.043335	-0.3186	0.31876	-0.010986	0.049438	-0.056763	0.26855	0.013885	-0.055695	-0.063171	0.10208	-0.001221	-0.10178	0.45517	0.00885	-0.002747
44.184	-0.010681	0.26718	-0.019379	0.011139	-0.015717	0.04837	0.084686	0.013275	-0.16449	0.055084	-0.002289	0.00351	0.02655	0.00061	-0.013733	-0.00061	0.037689	-0.38834	0.58579	0.19287	-0.072784	-0.023499	0.46951	0.077362	-0.088654	-0.003967	-0.022278	-0.00351	-0.040436	-0.004578	-0.003967	-0.002594
44.185	-0.009918	0.27451	-0.11581	0.001831	-0.047607	0.035095	0.089111	0.016174	-0.14252	0.018921	0.003204	0.008087	0.015717	0.033569	-0.014801	-0.006256	0.022583	-0.40802	0.79193	0.28488	-0.13199	0.001831	0.3894	0.010681	-0.099487	0.016022	-0.010986	-0.011749	0.03418	-0.050812	-0.002747	-0.002136
44.186	-0.018768	0.28275	-0.18845	0.009003	-0.041351	0.030212	0.067291	0.003052	-0.098724	0.014038	0.003204	0.011902	0.015259	-0.041962	-0.0383	0.006561	0.016174	-0.41718	1.1517	0.1358	0.004425	0.017548	0.20447	-0.028381	-0.10269	0.002136	0.042725	-0.014801	0.0177	-0.028992	-0.001373	-0.003357
44.187	0.002594	0.31158	-0.12924	0.010986	-0.096588	-0.001068	0.052795	0.009918	-0.043793	0.002289	0.072327	0.003052	0.049896	-0.029755	-0.084686	0.003967	-0.00473	-0.37857	1.0928	0.042114	-0.043793	0.039063	0.047302	-0.038147	-0.11231	-0.023346	0.003204	-0.005951	0.040894	-0.33478	0.000458	-0.005493
44.188	0.0177	0.3122	-0.068512	0.02533	-0.017395	-0.041199	0.060425	-0.001678	-0.02594	0.014496	0.077972	0.006256	0.031738	-0.050354	0.014954	-0.005341	0.001526	-0.4541	0.91614	0.000763	-0.055237	0.049286	-0.44937	-0.066681	-0.086212	-0.072021	0.020142	-0.014954	-0.027618	-0.38406	-0.004578	-0.005798
44.189	0.029449	0.30395	0.12817	0.011139	0.062408	-0.011902	0.038757	0.004425	-0.013885	0.030975	0.000458	0.009918	0.045166	-0.053101	0.062103	-0.007172	-0.008087	-0.41016	0.85938	-0.051727	-0.084686	0.094757	-0.6546	-0.023499	0.053864	-0.022583	-0.011292	-0.010529	-0.078583	0.11902	-0.001221	-0.005493
44.19	0.006104	0.29343	0.24216	-0.010681	0.085907	0.020905	0.011292	0.004425	-0.000458	-0.011444	0.029907	0.005341	-0.03891	-0.027771	0.039215	-0.003967	-0.021973	-0.41397	0.91248	-0.044556	0.000153	0.074615	-0.44754	0.065002	0.1265	0.046692	-0.072174	0.009155	-0.11475	0.099487	-0.005341	-0.003357
44.191	0.005646	0.26321	0.13611	0.009918	0.017853	-0.009918	0.036621	0.006104	0.014648	-0.033112	0.064545	0.005188	-0.041351	0.013428	0.004425	-0.015259	-0.03952	-0.39871	0.67993	-0.019989	0.038147	-0.01236	-0.26504	0.066223	0.074921	0.041962	-0.080109	0.028534	-0.1387	0.28214	-0.000916	-0.003815
44.192	0.005035	0.25452	0.066986	0.006256	0.025635	0.007019	0.017395	0.002289	0.034943	-0.062408	0.040131	-0.000153	-0.01297	0.026398	0.009155	0.00946	0.000305	-0.3891	0.42954	-0.04303	0.032043	-0.020905	-0.28625	-0.071411	0.038452	0.051575	0.14511	0.006104	-0.24384	0.39551	-0.000153	-0.004883
44.193	0.013428	0.27145	0.057373	-0.003815	0.006866	-0.005798	0.036316	0.005493	0.06485	-0.072174	-0.078888	0.009613	0.08667	-0.06424	0.052643	0.000458	0.022278	-0.3389	-0.024719	-0.035858	-0.021973	0.00885	-0.15884	-0.11795	0.001068	0.056	0.20371	0.001984	-0.32425	0.17593	-0.001221	-0.011292
44.194	0.005188	0.28686	0.026398	0.003052	0.001221	0.014343	0.024719	0.005341	0.089111	-0.069885	-0.012665	0.008392	0.063477	-0.11398	0.11353	0.013428	0.010834	-0.34378	0.19043	-0.029755	0.020142	0.010223	-0.11353	-0.086212	0.008698	0.042725	0.12375	0.000153	-0.34164	-0.027771	0.001984	-0.016632
44.195	0.004425	0.30334	-0.009613	0.023499	-0.00885	0.020905	0.016479	0.003357	0.10696	-0.038452	0.11505	0.005493	0.041962	-0.045776	0.10574	0.009308	0.00824	-0.31128	0.4158	-0.056152	-0.048065	0.003204	-0.16663	-0.094299	0.027618	0.005493	0.046387	0.001526	-0.21378	-0.14206	-0.001831	-0.005341
44.196	0.007935	0.29999	-0.011597	0.00946	0.014343	0.01236	0.045319	0.003967	0.12573	-0.010681	0.12528	0.015411	0.032654	0.081787	0.14557	-0.000458	0.002289	-0.2945	0.2919	-0.071106	-0.003052	-0.031586	-0.16663	-0.075531	0.041351	-0.022125	0.035858	-0.031586	0.045013	-0.29068	-0.001984	-0.007019
44.197	0.000763	0.31937	-0.046387	0.00885	0.016174	0.011749	0.034943	0.004425	0.1239	0.007935	0.019989	0.004883	0.04303	0.06134	0.10162	-0.006866	0.013428	-0.18875	0.47089	-0.16037	-0.0177	-0.024567	-0.060883	-0.090027	0.011597	-0.019226	0.043793	-0.040283	0.20783	-0.2243	0.001068	-0.006866
44.198	-0.005035	0.35919	-0.020599	0.013733	-0.002289	0.018921	0.049438	0.002899	0.15076	0.009003	-0.20111	-0.001221	0.046997	0.008545	-0.078735	-0.006256	0.017853	-0.12421	0.84549	-0.088348	-0.012817	-0.018158	0.14496	-0.023651	0.007629	-0.017548	0.052032	0.00885	0.4805	0.1796	-0.002289	-0.001831
44.199	0.006714	0.37888	-0.033112	0.015717	-0.032654	0.017242	0.044403	0.011902	0.14542	0.000916	-0.12207	0.015411	0.001373	0.019989	-0.045776	0.003357	0.014343	-0.046844	1.0837	0.01709	-0.03067	0.004425	0.1918	-0.022736	0.051117	-0.029144	0.070343	-0.00412	0.10834	0.29404	-0.000305	-0.007629
